<?xml version="1.0" standalone="no"?><!DOCTYPE svg PUBLIC "-//W3C//DTD SVG 1.1//EN" "http://www.w3.org/Graphics/SVG/1.1/DTD/svg11.dtd"><svg t="1599142460005" class="icon" viewBox="0 0 1024 1024" version="1.1" xmlns="http://www.w3.org/2000/svg" p-id="10261" xmlns:xlink="http://www.w3.org/1999/xlink" width="60" height="60"><defs><style type="text/css"></style></defs><path d="M566.528 389.504c-3.968 13.056-13.44 23.84-25.28 30.752a60.288 60.288 0 0 1-56.128 0 54.016 54.016 0 0 1-25.28-30.752c-64-4.64-127.2-16.16-173.024-26.912a1388.416 1388.416 0 0 1-93.248-23.872v501.44c0 13.088 10.272 23.84 24.512 23.84h589.44c13.44 0 24.48-9.984 24.48-23.84V339.52c-18.176 5.376-51.36 14.592-93.248 23.84-46.592 9.984-109.024 21.504-172.224 26.144z m102.912 318.784h-70.4c-15.68 0-31.328-12.416-31.328-29.792 0-14.912 13.056-27.328 28.704-27.328l-80.864-76.96-72.992 69.504c-10.432 9.92-31.296 9.92-41.728 0l-93.888-89.376a27.456 27.456 0 0 1-7.84-19.872c0-14.912 13.056-27.328 31.296-27.328 7.84 0 15.68 2.496 20.864 7.456l70.4 69.536 73.024-69.536c10.432-9.92 31.296-9.92 41.728 0l104.32 96.864c0-14.912 13.056-27.328 31.296-27.328 15.648 0 31.296 12.416 31.296 29.792v67.04c-2.624 14.912-15.648 27.328-33.92 27.328z m161.76-408v1.536c-22.112 6.912-144.576 43.072-266.24 52.288a56.32 56.32 0 0 0-52.16-33.824 56.32 56.32 0 0 0-52.16 33.824C338.176 344.896 214.112 308.736 192 301.824V183.84A24.96 24.96 0 0 1 217.28 160h589.44c13.44 0 24.48 11.52 23.68 23.84v117.216c0-0.768 0-0.768 0.8-0.768z m-318.4 42.304c18.176 0 32.384 13.824 32.384 31.52 0 10.752-6.304 21.536-16.576 27.68a32.48 32.48 0 0 1-32.416 0c-9.472-6.144-15.808-16.928-15.808-27.68 0-17.696 14.24-31.52 32.416-31.52z" p-id="10262" fill="#EC7D76"></path></svg>