<?xml version="1.0" standalone="no"?><!DOCTYPE svg PUBLIC "-//W3C//DTD SVG 1.1//EN" "http://www.w3.org/Graphics/SVG/1.1/DTD/svg11.dtd"><svg t="1599141948887" class="icon" viewBox="0 0 1024 1024" version="1.1" xmlns="http://www.w3.org/2000/svg" p-id="8721" xmlns:xlink="http://www.w3.org/1999/xlink" width="60" height="60"><defs><style type="text/css"></style></defs><path d="M511.914667 646.186667a181.504 181.504 0 0 1 74.282666-74.282667c77.226667-41.216 154.496-40.405333 217.002667-12.501333a229.674667 229.674667 0 0 1 66.304 44.885333V125.013333c0-33.28-27.221333-60.501333-60.501333-60.501333H205.098667c-33.28 0-60.501333 27.178667-60.501334 60.501333v744.192c0 33.109333 27.093333 60.16 60.202667 60.16h339.498667c-65.578667-67.584-89.898667-175.573333-32.426667-283.178666zM266.666667 272.981333c0-13.781333 11.306667-24.96 25.002666-24.96h229.973334c13.824 0 25.002667 11.264 25.002666 24.96a25.088 25.088 0 0 1-25.002666 25.002667h-229.973334a25.173333 25.173333 0 0 1-25.002666-25.002667z m0 160c0-13.781333 11.306667-24.96 25.002666-24.96H722.346667a25.173333 25.173333 0 0 1 25.002666 24.96 25.088 25.088 0 0 1-25.002666 25.002667H291.712a25.173333 25.173333 0 0 1-25.002667-25.002667z" fill="#39A0FF" p-id="8722"></path><path d="M784.64 593.92a190.037333 190.037333 0 1 0-74.24 365.610667 190.037333 190.037333 0 0 0 74.24-365.653334z" fill="#FFD29D" p-id="8723"></path><path d="M838.826667 780.501333a20.053333 20.053333 0 0 1-20.053334 20.010667h-112.469333a20.053333 20.053333 0 0 1-20.010667-20.010667v-139.989333a20.053333 20.053333 0 0 1 20.010667-20.010667 20.053333 20.053333 0 0 1 20.010667 20.010667v119.978667h92.501333a20.053333 20.053333 0 0 1 19.968 20.010666z" fill="#9DA5B9" p-id="8724"></path></svg>