<?xml version="1.0" encoding="UTF-8"?>
<svg width="20px" height="20px" viewBox="0 0 20 20" version="1.1" xmlns="http://www.w3.org/2000/svg" xmlns:xlink="http://www.w3.org/1999/xlink">
    <title>客户经理</title>
    <defs>
        <filter id="filter-1">
            <feColorMatrix in="SourceGraphic" type="matrix" values="0 0 0 0 1.000000 0 0 0 0 0.670588 0 0 0 0 0.168627 0 0 0 1.000000 0"></feColorMatrix>
        </filter>
    </defs>
    <g id="首页" stroke="none" stroke-width="1" fill="none" fill-rule="evenodd">
        <g id="人员选择" transform="translate(-30.000000, -436.000000)">
            <g id="list/single/search员工备份-6" transform="translate(0.000000, 420.000000)">
                <g id="客户经理" transform="translate(30.000000, 16.000000)" filter="url(#filter-1)">
                    <g>
                        <rect id="矩形" fill="#000000" fill-rule="nonzero" opacity="0" x="0" y="0" width="20" height="20"></rect>
                        <path d="M10.0079492,9.02777344 C11.7903711,9.02777344 13.2486914,7.56945312 13.2486914,5.78703125 C13.2486914,4.00462891 11.7903711,2.54628906 10.0079492,2.54628906 C8.22554688,2.54628906 6.76720703,4.00462891 6.76720703,5.78703125 C6.76720703,7.56945312 8.22554688,9.02777344 10.0079492,9.02777344 L10.0079492,9.02777344 Z M9.61908203,12.1389062 C9.45703125,12.0092578 9.35980469,11.8472266 9.35980469,11.6203711 C9.35980469,11.2638867 9.65148437,10.9722266 10.0079492,10.9722266 C10.3644336,10.9722266 10.6561133,11.2638867 10.6561133,11.6203711 C10.6561133,11.8472266 10.5588867,12.0092578 10.3968555,12.1388867 L11.2718555,15.2175977 C11.3366602,15.4444531 11.2718555,15.6713086 11.1098047,15.8333398 L10.2348047,16.7083398 C10.1051758,16.8379687 9.91074219,16.8379687 9.78109375,16.7083398 L8.90609375,15.8333398 C8.7440625,15.6712891 8.67925781,15.4444531 8.7440625,15.2175977 L9.6190625,12.1388867 L9.61908203,12.1389062 Z M7.18849609,9.35183594 C6.15146484,8.50925781 5.47091797,7.24535156 5.47091797,5.78701172 C5.47091797,3.29166016 7.51255859,1.25 10.0079297,1.25 C12.5033008,1.25 14.5449805,3.29166016 14.5449805,5.78703125 C14.5449805,7.21296875 13.8644141,8.50925781 12.8273828,9.35185547 C16.068125,10.2916602 18.4338672,13.2731445 18.4338672,16.8055664 C18.4338672,17.875 17.5588672,18.75 16.4894141,18.75 L3.52648437,18.75 C2.45703125,18.75 1.58203125,17.875 1.58203125,16.8055469 C1.58203125,13.2731445 3.94777344,10.2916797 7.18851562,9.35183594 L7.18849609,9.35183594 Z M16.4894336,17.4537109 C16.845918,17.4537109 17.1375781,17.1620312 17.1375781,16.8055469 C17.1375781,13.2407422 14.220918,10.324082 10.6561133,10.324082 L9.35982422,10.324082 C5.79498047,10.324082 2.87832031,13.2407422 2.87832031,16.8055469 C2.87832031,17.1620312 3.17,17.4537109 3.52648437,17.4537109 L16.4894336,17.4537109 L16.4894336,17.4537109 Z" id="形状" fill="#000000" fill-rule="nonzero"></path>
                    </g>
                </g>
            </g>
        </g>
    </g>
</svg>