<?xml version="1.0" standalone="no"?><!DOCTYPE svg PUBLIC "-//W3C//DTD SVG 1.1//EN" "http://www.w3.org/Graphics/SVG/1.1/DTD/svg11.dtd"><svg t="1599141353831" class="icon" viewBox="0 0 1024 1024" version="1.1" xmlns="http://www.w3.org/2000/svg" p-id="6906" xmlns:xlink="http://www.w3.org/1999/xlink" width="60" height="60"><defs><style type="text/css"></style></defs><path d="M461.248 840.32H260.704C205.216 840.32 160 796.64 160 743.008V256.32c0.32-53.664 45.216-97.376 100.704-97.376h424.576c55.488 0 100.704 43.712 100.704 97.376v193.92a24.832 24.832 0 0 1-25.28 24.416c-13.76 0-25.216-10.816-25.216-24.416V256.32c0-26.688-22.624-48.544-50.24-48.544H260.736c-27.584 0-50.208 21.856-50.208 48.544v486.88c0 26.688 22.624 48.576 50.24 48.576h200.512c13.792 0 25.248 10.784 25.248 24.416 0 13.6-11.168 24.128-25.28 24.128z m161.76-43.968c-85.12 0-154.432-67.008-154.432-149.344s69.312-149.344 154.432-149.344c85.152 0 154.464 67.008 154.464 149.344s-69.312 149.344-154.464 149.344z m0-249.856c-57.248 0-103.936 45.12-103.936 100.48 0 55.36 46.72 100.544 103.936 100.544 57.28 0 103.968-45.152 103.968-100.512s-46.4-100.48-103.968-100.48z m-86.016-193.92H284.8c-13.824 0-25.28-10.784-25.28-24.384 0-13.632 11.456-24.416 25.28-24.416h252.192c13.792 0 25.28 10.784 25.28 24.416 0 13.6-11.488 24.416-25.28 24.416z m-120.96 98.24H284.8c-13.824 0-25.28-10.784-25.28-24.416 0-13.344 11.2-24.416 25.28-24.416H416c13.824 0 25.28 10.784 25.28 24.416 0 13.344-11.456 24.416-25.28 24.416z m373.184 381.024l-71.04-68.704a23.936 23.936 0 0 1 0-34.368 25.952 25.952 0 0 1 35.52 0l71.04 68.704a23.936 23.936 0 0 1 0 34.368 25.952 25.952 0 0 1-35.52 0z" p-id="6907" fill="#ffffff"></path></svg>