<?xml version="1.0" encoding="UTF-8"?>
<svg width="32px" height="33px" viewBox="0 0 32 33" version="1.1" xmlns="http://www.w3.org/2000/svg" xmlns:xlink="http://www.w3.org/1999/xlink">
    <title>index-宽带</title>
    <defs>
        <filter id="filter-1">
            <feColorMatrix in="SourceGraphic" type="matrix" values="0 0 0 0 0.223529 0 0 0 0 0.627451 0 0 0 0 1.000000 0 0 0 1.000000 0"></feColorMatrix>
        </filter>
    </defs>
    <g id="首页" stroke="none" stroke-width="1" fill="none" fill-rule="evenodd">
        <g id="首页2.0" transform="translate(-47.000000, -585.000000)">
            <g id="重点关注" transform="translate(0.000000, 516.000000)">
                <g id="主量发展" transform="translate(12.000000, 38.350000)">
                    <g id="index-宽带" transform="translate(27.000000, 31.000000)" filter="url(#filter-1)">
                        <g transform="translate(8.000000, 0.000000)">
                            <rect id="矩形" fill="#000000" fill-rule="nonzero" opacity="0" x="0" y="0" width="32" height="32"></rect>
                            <path d="M30.5510093,21.75 L30.5510093,22.1207627 L28.3687943,22.1207627 C27.9672668,22.1207627 27.6355701,21.7853107 27.6355701,21.3792373 C27.6355701,20.9731638 27.9498091,20.6377119 28.3687943,20.6377119 L30.4288052,20.6377119 C30.3589744,20.4081921 30.2716858,20.1786723 30.1669394,20.0021186 L27.1118385,15.0586158 C27.0070922,14.8820621 26.7626841,14.7408192 26.5531915,14.7408192 L5.46426623,14.7408192 C5.27223131,14.7408192 5.01036552,14.8820621 4.9056192,15.0586158 L1.85051828,20.0021186 C1.74577196,20.1610169 1.65848336,20.3905367 1.58865248,20.6377119 L29.6287944,20.6377119 C30.030322,20.6377119 30.3445609,20.9731638 30.3445609,21.3792373 C30.3445609,21.7853107 30.0128642,22.1207627 29.6287944,22.1207627 L1.46644845,22.1207627 L1.46644845,21.75 L1.46644845,25.8107345 C1.46644845,26.2168079 1.7806874,26.5346045 2.18221495,26.5346045 L29.8352428,26.5346045 C30.2193126,26.5346045 30.5510093,26.2168079 30.5510093,25.8107345 L30.5510093,21.75 Z M8.01309329,3 C8.41462084,3 8.74631751,3.33545198 8.74631751,3.74152542 L8.74631751,13.2930791 L7.27986907,13.2930791 L7.27986907,3.74152542 C7.27986907,3.33545198 7.61156574,3 8.01309329,3 Z M23.2885979,3.74152542 C23.2885979,3.33545198 23.6202946,3 24.0218221,3 C24.4233497,3 24.7550464,3.33545198 24.7550464,3.74152542 L24.7550464,13.2930791 L23.3060556,13.2930791 L23.3060556,3.74152542 L23.2885979,3.74152542 Z M0,21.3792373 C0,20.9731638 0.157119476,20.3728814 0.366612111,20.019774 L3.98036007,13.9110169 C4.1898527,13.5579096 4.67866885,13.2754237 5.0801964,13.2754237 L26.9198036,13.2754237 C27.3213312,13.2754237 27.8101473,13.5579096 28.0196399,13.9110169 L31.6333879,20.019774 C31.8428805,20.3728814 32,20.9555085 32,21.3792373 L32,26.5346045 C32,27.3467514 31.3540644,28 30.5335516,28 L1.46644845,28 C0.663393344,28 0,27.3467514 0,26.5346045 L0,21.3792373 Z M4.3644299,24.3276836 C4.3644299,23.9216102 4.67866885,23.5861582 5.09765412,23.5861582 L6.54664484,23.5861582 C6.94817239,23.5861582 7.27986907,23.9216102 7.27986907,24.3276836 C7.27986907,24.7337571 6.96563011,25.069209 6.54664484,25.069209 L5.09765412,25.069209 C4.69612657,25.069209 4.3644299,24.7337571 4.3644299,24.3276836 Z M10.1953082,24.3276836 C10.1953082,23.9216102 10.5095472,23.5861582 10.9285325,23.5861582 L12.3775232,23.5861582 C12.7790507,23.5861582 13.1107474,23.9216102 13.1107474,24.3276836 C13.1107474,24.7337571 12.7965085,25.069209 12.3775232,25.069209 L10.9285325,25.069209 C10.5095472,25.069209 10.1953082,24.7337571 10.1953082,24.3276836 Z" id="形状" fill="#4AA6FC" fill-rule="nonzero"></path>
                        </g>
                    </g>
                </g>
            </g>
        </g>
    </g>
</svg>