<?xml version="1.0" standalone="no"?><!DOCTYPE svg PUBLIC "-//W3C//DTD SVG 1.1//EN" "http://www.w3.org/Graphics/SVG/1.1/DTD/svg11.dtd"><svg t="1599142266585" class="icon" viewBox="0 0 1024 1024" version="1.1" xmlns="http://www.w3.org/2000/svg" p-id="9517" xmlns:xlink="http://www.w3.org/1999/xlink" width="60" height="60"><defs><style type="text/css"></style></defs><path d="M824.909576 197.042424a102.834424 102.834424 0 0 1 102.493091 102.493091v332.334546c0.682667 27.120485-10.177939 52.25503-29.168485 71.928242a102.710303 102.710303 0 0 1-73.324606 30.564849l-308.658424-0.031031v47.445334a19.983515 19.983515 0 0 1-0.589576 4.871757L697.31297 786.618182c12.225939 0 22.403879 10.177939 22.403878 22.403879a17.997576 17.997576 0 0 1-5.430303 14.925575 22.062545 22.062545 0 0 1-16.973575 7.447273H317.191758A22.590061 22.590061 0 0 1 294.787879 809.053091c0-12.908606 9.495273-22.403879 22.403879-22.403879l164.305454 0.03103a16.756364 16.756364 0 0 1-0.527515-4.18909v-48.128H180.068848A102.834424 102.834424 0 0 1 77.575758 631.870061V299.535515A102.834424 102.834424 0 0 1 180.068848 197.042424h644.840728z m0 47.507394H180.099879c-30.564848 0-55.016727 24.451879-55.016727 54.985697v332.334546c0 30.533818 24.451879 54.954667 54.985696 54.954666h644.840728c30.564848 0 54.985697-24.420848 54.985697-54.954666V299.504485c0-30.533818-24.420848-54.985697-54.985697-54.985697z" fill="#4AA6FC" p-id="9518"></path></svg>