<?xml version="1.0" standalone="no"?><!DOCTYPE svg PUBLIC "-//W3C//DTD SVG 1.1//EN" "http://www.w3.org/Graphics/SVG/1.1/DTD/svg11.dtd"><svg t="1599141273643" class="icon" viewBox="0 0 1024 1024" version="1.1" xmlns="http://www.w3.org/2000/svg" p-id="5232" xmlns:xlink="http://www.w3.org/1999/xlink" width="60" height="60"><defs><style type="text/css"></style></defs><path d="M162.88 409.888c55.584 20.448 87.296 54.496 87.296 101.696 0 46.88-31.36 82.56-87.264 107.008v142.72a17.28 17.28 0 0 0 17.44 17.024h663.296a17.28 17.28 0 0 0 17.44-17.056v-144.512c-55.744-22.912-87.264-57.344-87.264-103.552 0-46.4 31.744-79.904 87.264-100.48V275.168a17.28 17.28 0 0 0-17.44-17.056H180.352a17.28 17.28 0 0 0-17.44 17.056v134.72zM180.384 224h663.296C872.544 224 896 246.912 896 275.2v149.6c0 7.36-4.864 13.92-12.032 16.192-50.144 16-75.232 40.096-75.232 72.224 0 32.288 25.28 57.6 75.872 75.968a17.088 17.088 0 0 1 11.392 16v156.096c0 28.256-23.456 51.2-52.352 51.2H180.352c-28.896 0-52.352-22.944-52.352-51.2v-153.984c0-6.976 4.352-13.248 10.976-15.84 50.88-19.84 76.288-46.496 76.288-79.872 0-33.152-25.056-57.6-75.168-73.376A17.088 17.088 0 0 1 128 421.984V275.2C128 246.912 151.456 224 180.352 224z m183.296 153.504h261.792a17.28 17.28 0 0 1 17.472 17.056 17.28 17.28 0 0 1-17.472 17.056h-261.792a17.28 17.28 0 0 1-17.472-17.056 17.28 17.28 0 0 1 17.472-17.056z m0 119.392h261.792a17.28 17.28 0 0 1 17.472 17.056 17.28 17.28 0 0 1-17.472 17.056h-261.792a17.28 17.28 0 0 1-17.472-17.056 17.28 17.28 0 0 1 17.472-17.056z m0 119.424h192a17.28 17.28 0 0 1 17.44 17.056 17.28 17.28 0 0 1-17.44 17.056h-192a17.28 17.28 0 0 1-17.472-17.056 17.28 17.28 0 0 1 17.472-17.056z" p-id="5233" fill="#ffffff"></path></svg>