<?xml version="1.0" standalone="no"?><!DOCTYPE svg PUBLIC "-//W3C//DTD SVG 1.1//EN" "http://www.w3.org/Graphics/SVG/1.1/DTD/svg11.dtd"><svg t="1599141942568" class="icon" viewBox="0 0 1024 1024" version="1.1" xmlns="http://www.w3.org/2000/svg" p-id="8580" xmlns:xlink="http://www.w3.org/1999/xlink" width="60" height="60"><defs><style type="text/css"></style></defs><path d="M740.565143 75.947457c0-41.898632-34.474638-75.946603-76.799936-75.946604s-76.799936 34.047972-76.799936 75.946604v164.522529h-153.514539V75.947457A76.543936 76.543936 0 0 0 356.608129 0.000853c-42.325298 0-76.799936 34.047972-76.799936 75.946604v164.522529H128.00032v355.626371c0 62.719948 51.839957 114.047905 115.199904 114.047905h111.57324v74.453271h78.506602V1024h153.599872v-239.402467h76.159936v-74.453271h117.759902c63.359947 0 115.199904-51.327957 115.199904-114.047905V240.640653h-155.434537V75.947457z" fill="#39A0FF" p-id="8581"></path><path d="M629.375902 494.933774L414.720081 681.386952l57.983952-151.679873-61.695949-37.973302 133.973222-159.231867 111.018574 35.157304-92.031923 86.869261z" fill="#FFD29D" p-id="8582"></path></svg>