<?xml version="1.0" standalone="no"?><!DOCTYPE svg PUBLIC "-//W3C//DTD SVG 1.1//EN" "http://www.w3.org/Graphics/SVG/1.1/DTD/svg11.dtd"><svg t="1599141359158" class="icon" viewBox="0 0 1024 1024" version="1.1" xmlns="http://www.w3.org/2000/svg" p-id="7092" xmlns:xlink="http://www.w3.org/1999/xlink" width="60" height="60"><defs><style type="text/css"></style></defs><path d="M790.912 852.896H232.768a104.768 104.768 0 0 1-90.72-157.12L421.12 212.384a104.704 104.704 0 0 1 181.376 0l279.104 483.392a104.736 104.736 0 0 1-90.72 157.12zM511.808 201.888a62.24 62.24 0 0 0-54.4 31.456L178.304 716.704a62.88 62.88 0 0 0 54.464 94.272h558.144a62.88 62.88 0 0 0 54.496-94.272L566.272 233.344a62.272 62.272 0 0 0-54.464-31.456z m0.032 435.392a20.96 20.96 0 0 1-20.928-20.96V303.488a20.96 20.96 0 0 1 41.92 0v312.832a20.928 20.928 0 0 1-20.992 20.96z m-30.72 93.056a31.168 31.168 0 1 0 62.304 0 31.168 31.168 0 0 0-62.336 0z" p-id="7093" fill="#ffffff"></path></svg>