<?xml version="1.0" standalone="no"?><!DOCTYPE svg PUBLIC "-//W3C//DTD SVG 1.1//EN" "http://www.w3.org/Graphics/SVG/1.1/DTD/svg11.dtd"><svg t="1599142418050" class="icon" viewBox="0 0 1024 1024" version="1.1" xmlns="http://www.w3.org/2000/svg" p-id="9797" xmlns:xlink="http://www.w3.org/1999/xlink" width="60" height="60"><defs><style type="text/css"></style></defs><path d="M503.584 469.12l3.84-3.84c1.28-1.28 2.56-2.56 2.56-3.84 3.84-3.84 8.96-8.96 14.048-12.8 1.28-1.28 2.56-1.28 2.56-2.56l1.28-1.28c1.28-1.28 2.56-1.28 2.56-2.56h1.28c3.84-2.528 6.368-5.088 10.208-7.648 0 0 1.28 0 1.28-1.28l2.56-2.56 1.28-1.28c1.28 0 1.28-1.28 2.56-1.28l1.28-1.28c1.28 0 1.28-1.28 2.528-1.28l1.28-1.28 7.68-3.808v-33.216c0-22.976-17.92-40.864-40.896-40.864H168.864c-22.976 0-40.864 17.888-40.864 40.864v40.896c0 22.976 17.888 40.864 40.864 40.864h334.72z m-332.16 83.008v40.896c0 22.976 17.92 40.864 40.896 40.864h227.392v-24.256c0-2.56 0-3.84 1.28-6.4 0-1.28 0-3.84 1.28-5.12v-1.28c0-1.28 0-2.56 1.28-3.84v-1.28c0-1.28 0-3.84 1.28-5.088v-1.28c0-1.28 0-2.56 1.28-3.84v-1.28c0-1.28 1.28-2.56 1.28-5.12v-1.28c0-1.28 1.28-2.56 1.28-3.808v-1.28c0-1.28 1.28-2.56 1.28-5.12v-1.28c0-1.28 1.28-2.56 1.28-3.84v-1.28c0-1.28 1.28-2.528 1.28-3.808 0 0 0-1.28 1.28-1.28 0-1.28 1.248-2.56 1.248-2.56s0-1.28 1.28-1.28c0-1.28 1.28-2.56 1.28-3.84 0-1.28 0-1.28 1.28-2.56 0-1.28 1.28-1.28 1.28-2.56 0-1.248 0-1.248 1.28-2.528 0-1.28 1.28-2.56 1.28-3.84 0-1.28 1.28-1.28 1.28-2.56s1.28-1.28 1.28-2.56 1.28-1.28 1.28-2.56c1.28-1.28 1.28-2.56 2.56-3.808 0-1.28 1.28-1.28 1.28-2.56s1.248-1.28 1.248-2.56 1.28-1.28 1.28-2.56H212.32c-23.008-2.56-40.896 15.36-40.896 38.336zM212.32 304.32H774.4c22.976 0 40.864-17.888 40.864-40.864V222.528c0-22.976-17.888-40.864-40.864-40.864H212.32c-23.008 0-40.896 17.888-40.896 40.864v40.896c0 21.696 17.92 40.864 40.896 40.864z m-20.448 373.024c-23.008 0-40.864 17.92-40.864 40.896v40.864c0 23.04 17.856 40.896 40.864 40.896h311.712c-30.656-34.496-52.384-76.64-60.032-123.904l-251.68 1.28z m496.96-249.088c-113.696 0-206.976 93.248-206.976 206.944 0 113.696 93.28 206.944 206.976 206.944s206.944-93.248 206.944-206.944c0-113.696-93.248-206.944-206.944-206.944z m116.608 297.44a28.864 28.864 0 0 1-21.44-8.992l-71.232-78.88-57.728 45.76a29.184 29.184 0 0 1-39.36-3.264l-65.12-71.104a25.376 25.376 0 0 1 3.712-37.408 29.792 29.792 0 0 1 40 3.488l45.92 51.072 57.696-45.76a29.248 29.248 0 0 1 20.544-6.4c7.488 0.576 14.4 3.872 19.264 9.28l87.424 98.88a24.832 24.832 0 0 1 4.288 28.16 28.192 28.192 0 0 1-25.696 15.168h1.728z" p-id="9798" fill="#42B5ED"></path></svg>