<?xml version="1.0" standalone="no"?><!DOCTYPE svg PUBLIC "-//W3C//DTD SVG 1.1//EN" "http://www.w3.org/Graphics/SVG/1.1/DTD/svg11.dtd"><svg t="1599141289424" class="icon" viewBox="0 0 1024 1024" version="1.1" xmlns="http://www.w3.org/2000/svg" p-id="5604" xmlns:xlink="http://www.w3.org/1999/xlink" width="60" height="60"><defs><style type="text/css"></style></defs><path d="M780.384 815.52a65.92 65.92 0 0 1-46.784 17.472H290.336a66.048 66.048 0 0 1-46.816-17.472A60.8 60.8 0 0 1 224 771.072V213.536c0-16.704 7.04-32.704 19.52-44.384 12.512-11.648 29.408-17.92 46.816-17.472h341.952v1.184a2.88 2.88 0 0 1 2.336 0.704l164.224 152.096H800v465.376c0 16.768-7.072 32.8-19.616 44.48zM290.336 185.984a29.44 29.44 0 0 0-21.44 7.456 27.04 27.04 0 0 0-9.056 20.096v557.504c0 7.648 3.264 14.944 9.024 20.16 5.76 5.216 13.568 7.904 21.44 7.424h443.296a29.376 29.376 0 0 0 21.44-7.424 27.008 27.008 0 0 0 9.024-20.096V340H663.36a66.08 66.08 0 0 1-46.816-17.472 60.8 60.8 0 0 1-19.616-44.384V184.96l-293.632 1.184-12.928-0.128z m342.528 14.4V278.08c-0.064 7.616 3.2 14.944 8.992 20.16a29.44 29.44 0 0 0 21.44 7.456h82.976l-113.408-105.28z m25.92 311.808c9.92 0 17.92 7.68 17.92 17.216a17.6 17.6 0 0 1-17.92 17.216h-297.216a17.6 17.6 0 0 1-17.92-17.216 17.6 17.6 0 0 1 17.92-17.216h297.216z m-295.136 136.608h295.136c9.92 0 17.92 7.68 17.92 17.216a17.6 17.6 0 0 1-17.92 17.216h-295.136a17.6 17.6 0 0 1-17.92-17.216 17.6 17.6 0 0 1 17.92-17.216z" p-id="5605" fill="#ffffff"></path></svg>