<?xml version="1.0" standalone="no"?><!DOCTYPE svg PUBLIC "-//W3C//DTD SVG 1.1//EN" "http://www.w3.org/Graphics/SVG/1.1/DTD/svg11.dtd"><svg t="1599142853311" class="icon" viewBox="0 0 1024 1024" version="1.1" xmlns="http://www.w3.org/2000/svg" p-id="10447" xmlns:xlink="http://www.w3.org/1999/xlink" width="60" height="60"><defs><style type="text/css"></style></defs><path d="M874.581333 339.84h-15.744v-36.394667c-0.768-39.808-32.213333-71.893333-71.210666-72.704h-264.234667v-25.898666c-3.2-40.576-36.096-72.064-75.989333-72.704h-244.053334a68.778667 68.778667 0 0 0-50.858666 20.778666A71.722667 71.722667 0 0 0 132.138667 204.8V817.493333c6.186667 23.722667 26.837333 40.533333 50.901333 41.386667h600.106667a54.186667 54.186667 0 0 0 50.730666-46.677333l86.528-404.608c15.189333-31.146667-10.154667-67.413333-45.824-67.413334v-0.298666zM203.349333 184.106667h244.053334c13.653333 0.853333 24.533333 11.946667 25.514666 25.856v72.704h315.221334a22.186667 22.186667 0 0 1 20.352 20.778666v36.394667H269.44A54.613333 54.613333 0 0 0 218.581333 386.56l-35.541333 171.306667V204.8a22.186667 22.186667 0 0 1 20.309333-20.778667z m584.789334 617.685333H177.92l86.528-404.608h610.133333l-86.4 404.608z" p-id="10448" fill="#ffffff"></path></svg>