<?xml version="1.0" standalone="no"?><!DOCTYPE svg PUBLIC "-//W3C//DTD SVG 1.1//EN" "http://www.w3.org/Graphics/SVG/1.1/DTD/svg11.dtd"><svg t="1599138038239" class="icon" viewBox="0 0 1024 1024" version="1.1" xmlns="http://www.w3.org/2000/svg" p-id="3317" xmlns:xlink="http://www.w3.org/1999/xlink" width="60" height="60"><defs><style type="text/css"></style></defs><path d="M526.549333 482.773333c69.930667-72.106667 139.52-143.274667 208.384-215.082666 35.712-37.248 75.52-54.357333 126.250667-32.426667 48.128 20.778667 55.893333 59.605333 55.466667 107.392-1.792 185.685333-0.682667 371.413333-0.853334 557.056 0 64.896-32.938667 101.802667-90.709333 102.784-68.992 1.152-108.202667-35.157333-108.970667-104.106667-1.109333-96.384-0.298667-192.725333-0.298666-289.066666v-60.714667l-12.117334-6.229333c-35.754667 37.461333-70.869333 75.605333-107.477333 112.213333-46.336 46.378667-101.12 47.573333-147.84 1.664-37.12-36.522667-71.338667-76.032-106.837333-114.218667l-14.890667 6.826667v222.208c0 45.568 1.493333 91.178667-0.426667 136.618667-2.56 62.421333-44.885333 97.152-111.829333 94.762666-54.4-1.92-88.021333-40.874667-87.978667-100.949333 0.085333-187.434667 0.853333-374.912-0.725333-562.346667-0.426667-46.634667 12.117333-82.218667 55.424-103.168 47.957333-23.253333 88.661333-7.424 123.434667 26.752 67.413333 66.133333 133.376 133.632 200.064 200.533334 4.821333 4.821333 10.24 9.130667 21.930666 19.498666z" fill="#39A0FF" p-id="3318"></path><path d="M220.202667 34.602667c50.56-0.170667 88.746667 37.76 87.466666 86.954666-1.194667 48.213333-36.565333 83.114667-84.906666 83.712-50.944 0.64-86.485333-35.157333-85.674667-86.357333C137.813333 68.992 171.605333 34.773333 220.16 34.602667zM808.490667 34.602667c50.56-0.170667 88.746667 37.76 87.466666 86.954666-1.237333 48.213333-36.565333 83.114667-84.906666 83.712-50.944 0.64-86.485333-35.157333-85.717334-86.357333 0.768-49.92 34.56-84.138667 83.157334-84.309333z" fill="#FFD29D" p-id="3319"></path></svg>