<?xml version="1.0" standalone="no"?><!DOCTYPE svg PUBLIC "-//W3C//DTD SVG 1.1//EN" "http://www.w3.org/Graphics/SVG/1.1/DTD/svg11.dtd"><svg t="1599142448569" class="icon" viewBox="0 0 1024 1024" version="1.1" xmlns="http://www.w3.org/2000/svg" p-id="10029" xmlns:xlink="http://www.w3.org/1999/xlink" width="60" height="60"><defs><style type="text/css"></style></defs><path d="M303.232 417.536c5.76 35.712 36.864 170.88 181.248 237.312a18.976 18.976 0 0 0 19.584-1.92l77.184-55.296c14.592-10.752 41.088-20.736 62.976 0.384l115.2 107.904s16.896 27.648 4.992 42.624c-33.408 40.32-109.056 124.416-109.056 124.416s-14.208 17.28-42.624 7.296c-46.08-16.512-202.368-96-327.936-244.992-122.88-145.92-155.52-271.488-179.328-359.424-8.064-28.8-3.456-54.912 18.432-64.896 28.416-13.056 150.912-70.272 150.912-70.272s28.416-7.68 40.704 14.208c12.288 21.888 81.024 116.352 89.472 131.328 9.984 17.28 3.84 31.872-4.992 39.552-10.752 9.216-71.424 60.288-91.776 77.184a15.84 15.84 0 0 0-4.992 14.592z m630.336 73.824h-66.88c-14.88 0-29.76-11.84-29.76-28.448 0-14.208 12.384-26.08 27.264-26.08l-76.8-73.472-69.376 66.368c-9.92 9.504-29.728 9.504-39.648 0l-89.184-85.312a26.24 26.24 0 0 1-7.424-18.976c0-14.208 12.384-26.08 29.728-26.08 7.424 0 14.88 2.368 19.84 7.104l66.88 66.368 69.344-66.368c9.92-9.472 29.76-9.472 39.68 0l99.072 92.48c0-14.24 12.384-26.112 29.728-26.112 14.848 0 29.728 11.84 29.728 28.48v64c-2.464 14.208-14.88 26.048-32.192 26.048z" p-id="10030" fill="#7858F5"></path></svg>