<?xml version="1.0" standalone="no"?><!DOCTYPE svg PUBLIC "-//W3C//DTD SVG 1.1//EN" "http://www.w3.org/Graphics/SVG/1.1/DTD/svg11.dtd"><svg t="1599141235870" class="icon" viewBox="0 0 1024 1024" version="1.1" xmlns="http://www.w3.org/2000/svg" p-id="4488" xmlns:xlink="http://www.w3.org/1999/xlink" width="60" height="60"><defs><style type="text/css"></style></defs><path d="M360.224 205.12c-119.808 0-231.04 92.16-266.016 201.12-35.2 109.664-21.504 232.768 68.992 324.032 111.424 112.32 281.088 119.52 397.952 11.84 3.648-3.328 7.296-6.848 11.008-10.56l9.376-9.536c18.688-19.616 37.568-42.432 63.392-75.936l39.52-51.872c9.76-12.736 17.696-22.976 25.248-32.352 44.32-55.296 96.512-87.36 157.216-96.896l96.64-15.168-95.36-21.824c-88.48-20.256-164.192 1.472-224.608 64.64-16 16.768-29.28 31.584-42.112 46.816l-37.216 45.12a175.456 175.456 0 0 1-21.184 20.8c-11.008 9.056-24.896 18.112-44.8 28.992-74.368 40.704-205.888 23.616-262.016-38.656-50.688-56.256-44.448-143.04 0.96-202.56 39.808-52.096 129.376-74.272 185.12-39.136 53.216 33.536 50.24 97.088 3.008 116.128-47.104 15.68-73.856 2.112-89.856-32.32a132.96 132.96 0 0 1-9.472-29.856l-0.96-5.12-1.28-9.6-0.416-1.856a90.144 90.144 0 0 0-0.832-2.4l-1.408-2.656a24.96 24.96 0 0 0-1.6-2.176l-9.28-5.984-16.224 2.944-7.552 8.512-0.48 20.672-1.664 36.192c-0.32 8.896-0.384 15.808-0.256 23.424 1.312 74.112 29.024 120.864 101.856 135.872 109.568 22.624 215.296-75.392 218.016-173.472 3.168-113.76-91.456-227.136-243.712-227.136z m0 37.76c129.6 0 208.64 94.656 206.016 188.352-2.08 75.904-87.584 155.2-172.704 137.6l-6.144-1.376c-41.984-10.464-59.968-34.976-64.48-78.432l-0.32-3.264 0.64 0.64c26.08 27.072 64.576 36 115.136 19.072 77.76-31.296 82.56-133.92 4.064-183.36-73.184-46.176-184.128-18.72-235.168 48.128-55.52 72.736-63.2 179.456 0.96 250.688 68.288 75.744 218.944 95.328 308.16 46.464 21.824-11.936 37.6-22.176 50.624-32.896 9.216-7.552 17.12-15.36 25.6-25.088l30.272-36.8a943.04 943.04 0 0 1 48-53.952l6.144-6.24c24.96-24.288 52.48-40.384 82.848-48.32l4.192-0.992-1.024 0.64c-30.176 18.464-57.792 43.328-82.784 74.528l-9.536 12.064-55.424 72.416c-27.2 35.264-46.272 58.176-65.344 77.664l-4.384 4.448c-3.392 3.36-6.72 6.528-9.952 9.536-101.728 93.696-248.288 87.456-345.632-10.688-79.104-79.744-91.168-188.416-59.84-285.952 30.208-94.144 127.68-174.912 230.08-174.912z" p-id="4489" fill="#ffffff"></path></svg>