<?xml version="1.0" standalone="no"?><!DOCTYPE svg PUBLIC "-//W3C//DTD SVG 1.1//EN" "http://www.w3.org/Graphics/SVG/1.1/DTD/svg11.dtd"><svg t="1599141384619" class="icon" viewBox="0 0 1024 1024" version="1.1" xmlns="http://www.w3.org/2000/svg" p-id="8208" xmlns:xlink="http://www.w3.org/1999/xlink" width="60" height="60"><defs><style type="text/css"></style></defs><path d="M309.984 618.24c-12.576 0.512-22.464 10.368-22.464 22.4 0 12 9.92 21.888 22.464 22.4h101.28c8.32 0 16.128-4.192 20.352-11.104a21.76 21.76 0 0 0-0.064-22.496 24 24 0 0 0-20.416-11.2h-101.12z m151.712-99.712a23.68 23.68 0 0 0 20.288-11.264 21.504 21.504 0 0 0-0.096-22.4 23.776 23.776 0 0 0-20.352-11.2H309.952c-12.576 0.512-22.496 10.4-22.496 22.4 0 12 9.92 21.888 22.496 22.4l151.616 0.064h0.128z m276.16-167.04c-0.032-12.448-10.56-22.528-23.616-22.56l-404.288-0.128a23.968 23.968 0 0 0-21.12 11.04 21.728 21.728 0 0 0-0.032 22.976c4.416 7.04 12.48 11.296 21.12 11.04l404.32 0.192c13.024-0.064 23.584-10.144 23.584-22.56zM746.56 160a119.488 119.488 0 0 1 83.04 32.8 108.992 108.992 0 0 1 34.336 79.264l-1.056 212.288a23.296 23.296 0 0 1-23.552 20.416 23.264 23.264 0 0 1-23.552-20.448l1.088-212.32c0-17.696-7.456-35.008-20.576-47.52a72.256 72.256 0 0 0-49.6-19.616H277.28c-38.752 0.256-70.08 30.208-70.24 67.2v447.872c-0.032 17.824 7.36 34.88 20.48 47.52 13.056 12.48 31.136 19.648 49.6 19.616h222.688c12.448 0.704 22.144 10.56 22.144 22.464 0 11.904-9.696 21.76-22.144 22.464H277.344a120.512 120.512 0 0 1-82.976-32.768A109.76 109.76 0 0 1 160 720v-448a110.08 110.08 0 0 1 34.304-79.232A119.2 119.2 0 0 1 277.184 160h469.44z m-44.256 672c-77.12 0-143.36-52.992-158.368-126.464-14.944-73.504 25.536-147.04 96.736-175.68 71.392-28.576 153.984-4.192 196.032 57.888 42.848 62.4 34.496 144.864-20.096 198.304A163.52 163.52 0 0 1 702.336 832z m-0.224-273.728c-66.24 0.128-119.808 52.416-119.68 116.8 0.096 64.416 53.824 116.576 120.032 116.512 66.24 0 119.936-52.192 120-116.608-0.16-64.48-54.016-116.704-120.352-116.704z m-21.28 137.984v-87.136c0-10.592 8.768-19.2 19.648-19.2 10.88 0 19.68 8.608 19.68 19.2v48.96h50.272c7.008 0 13.472 3.648 16.96 9.6a18.56 18.56 0 0 1 0 19.072 19.712 19.712 0 0 1-16.96 9.504h-89.6z" p-id="8209" fill="#ffffff"></path></svg>