<?xml version="1.0" standalone="no"?><!DOCTYPE svg PUBLIC "-//W3C//DTD SVG 1.1//EN" "http://www.w3.org/Graphics/SVG/1.1/DTD/svg11.dtd"><svg t="1599141364766" class="icon" viewBox="0 0 1024 1024" version="1.1" xmlns="http://www.w3.org/2000/svg" p-id="7278" xmlns:xlink="http://www.w3.org/1999/xlink" width="60" height="60"><defs><style type="text/css"></style></defs><path d="M386.24 660.16h44.16v41.92h-44.16v-41.92z m153.216 143.872H218.24a14.208 14.208 0 0 1-14.56-13.824V247.296c0-7.584 6.528-13.792 14.56-13.792h416.768c8 0 14.56 6.208 14.56 13.792v127.968h43.68V247.296c0-30.528-26.08-55.296-58.24-55.296H218.24C186.08 192 160 216.768 160 247.296v542.912c0 30.528 26.08 55.296 58.24 55.296h321.216v-41.472z m277.664-408.992l-29.824-12.896c-14.08-6.08-30.08-6.656-44.544-1.504-14.496 5.12-26.24 15.52-32.64 28.864l-142.624 297.28c-2.816 5.984-5.792 12.672-4.704 20.288 4.48 31.36 21.088 115.52 21.088 115.52s81.28-46.496 105.184-60.064c5.184-2.944 10.496-9.088 13.696-15.776l143.2-298.432c13.344-27.808 0.416-60.608-28.832-73.28z m-153.728 353.728l-47.872 27.264a1963.264 1963.264 0 0 1-8.896-50.752l143.296-298.56a14.272 14.272 0 0 1 8.16-7.232 15.232 15.232 0 0 1 11.104 0.384l29.824 12.928c7.328 3.168 10.56 11.36 7.2 18.304L663.392 748.8z m-236.096-413.792c-66.752 0-117.12 47.84-117.12 111.296v0.288h44.16v-0.32c0-38.24 32.672-69.28 72.96-69.312 40.288 0 73.024 31.104 73.024 69.344 0 38.24-32.736 69.376-73.024 69.376H386.24v111.168h44.16v-69.28c65.216-1.44 114.08-48.8 114.08-111.264 0-63.456-50.368-111.296-117.184-111.296z" p-id="7279" fill="#ffffff"></path></svg>