<?xml version="1.0" standalone="no"?><!DOCTYPE svg PUBLIC "-//W3C//DTD SVG 1.1//EN" "http://www.w3.org/Graphics/SVG/1.1/DTD/svg11.dtd"><svg t="1599141388485" class="icon" viewBox="0 0 1024 1024" version="1.1" xmlns="http://www.w3.org/2000/svg" p-id="8394" xmlns:xlink="http://www.w3.org/1999/xlink" width="60" height="60"><defs><style type="text/css"></style></defs><path d="M800 219.296a25.6 25.6 0 0 0-16-6.176h-104.96v-8.544a45.856 45.856 0 0 0-14.272-31.552 48.64 48.64 0 0 0-32-13.024h-235.52a45.44 45.44 0 0 0-45.44 45.216v8.544h-104.96a21.344 21.344 0 0 0-16.64 6.816 26.24 26.24 0 0 0-6.176 16.224v573.664a21.344 21.344 0 0 0 6.816 16.64 24.544 24.544 0 0 0 16 6.176h537.184a23.456 23.456 0 0 0 16.64-6.816 25.6 25.6 0 0 0 6.176-16V236.8a21.344 21.344 0 0 0-6.816-17.504z m-167.04-14.72v59.968h-234.656V205.856l234.688-1.28z m128 583.04H270.336v-528h81.92v6.208c0 25.088 20.352 45.44 45.44 45.44h235.968c12.064 0 23.648-4.736 32.192-13.248 8.224-8.736 12.928-20.224 13.248-32.192v-6.208h81.92v528z m-263.456-222.496l-79.36-75.744-36.672 38.4 116.032 110.528 181.76-174.72-36.48-38.4-145.28 139.936z" p-id="8395" fill="#ffffff"></path></svg>