<?xml version="1.0" standalone="no"?><!DOCTYPE svg PUBLIC "-//W3C//DTD SVG 1.1//EN" "http://www.w3.org/Graphics/SVG/1.1/DTD/svg11.dtd"><svg t="1599141349409" class="icon" viewBox="0 0 1024 1024" version="1.1" xmlns="http://www.w3.org/2000/svg" p-id="6720" xmlns:xlink="http://www.w3.org/1999/xlink" width="60" height="60"><defs><style type="text/css"></style></defs><path d="M857.92 364.128L578.368 179.84c-49.92-37.92-102.144-15.68-124.032 2.208L157.12 375.424c-13.056 8-34.176 25.184-28.032 45.248 3.84 13.856 17.664 21.888 41.088 23.36h70.656v292.608a75.2 75.2 0 0 0 75.264 75.2h205.056c6.144 0 11.52-2.56 14.976-6.592a19.2 19.2 0 0 0 6.912-14.592v-174.048h100.608c11.52 0 21.12-8.768 21.12-20.064 0-11.328-9.216-20.064-21.12-20.064H543.04v-44.16h100.608c11.52 0 21.12-8.768 21.12-20.064 0-11.328-9.216-20.064-21.12-20.064H571.84l74.496-76.256a18.752 18.752 0 0 0-1.152-28.096 21.184 21.184 0 0 0-29.568 1.088l-94.464 95.968-91.008-96a21.92 21.92 0 0 0-29.568-1.44c-8.448 7.68-9.216 20.064-1.536 28.096l72.96 76.992h-71.808c-11.52 0-21.12 8.768-21.12 20.064 0 11.328 9.216 20.064 21.12 20.064h100.608v44.16h-100.608c-11.52 0-21.12 8.768-21.12 20.064 0 11.328 9.216 20.064 21.12 20.064h100.608v155.072H315.328c-18.432 0-33.408-15.68-33.408-35.392v-309.76c0-1.088-0.384-1.472-0.768-2.56v-0.736c0-10.944-9.216-20.064-21.12-20.064H185.92l292.608-190.464c0.768-0.352 1.536-1.088 1.92-1.472 3.84-2.88 36.48-28.448 72.192-1.088l1.152 1.088 279.936 184.288c4.992 3.264 9.6 7.648 13.824 11.296-2.688 0-5.76 0.352-9.6 0l-66.432 0.352h-1.536c-11.52 0-21.12 8.768-21.12 20.096v308.672c0 19.712-14.976 35.392-33.408 35.392h-106.368c-11.52 0-21.12 8.768-21.12 20.064 0 10.944 9.216 20.064 21.12 20.064h106.368a75.2 75.2 0 0 0 75.264-75.168v-289.344l46.464-0.352c13.056 0.352 48 1.088 57.248-23.712 8.448-23.008-18.848-46.72-36.48-59.104" p-id="6721" fill="#ffffff"></path></svg>