<?xml version="1.0" standalone="no"?><!DOCTYPE svg PUBLIC "-//W3C//DTD SVG 1.1//EN" "http://www.w3.org/Graphics/SVG/1.1/DTD/svg11.dtd"><svg t="1599141251249" class="icon" viewBox="0 0 1024 1024" version="1.1" xmlns="http://www.w3.org/2000/svg" p-id="4860" xmlns:xlink="http://www.w3.org/1999/xlink" width="60" height="60"><defs><style type="text/css"></style></defs><path d="M861.728 679.424l-201.536-194.72c30.592-91.2 4.16-191.296-67.84-257.088-72.032-65.792-176.768-85.504-268.992-50.56a23.264 23.264 0 0 0-14.464 16.224 23.04 23.04 0 0 0 6.528 20.8l133.888 130.112-98.88 95.776-134.4-130.112a24.768 24.768 0 0 0-21.44-6.336 23.552 23.552 0 0 0-16.8 14.464c-36.32 89.376-16.096 190.976 51.904 260.896 67.968 69.888 171.52 95.52 265.792 65.76l201.088 194.72a116.224 116.224 0 0 0 82.112 32.96c47.328 0.288 90.112-27.168 108.32-69.44a110.368 110.368 0 0 0-25.28-123.456z m-33.12 127.392c-13.056 12.8-30.88 20.032-49.44 20.032-18.592 0-36.416-7.232-49.472-20.032l-211.808-204.64a23.744 23.744 0 0 0-16.32-6.336h-8.384c-71.136 27.36-152 14.912-210.816-32.448-58.88-47.36-86.24-122.112-71.456-194.816l123.2 119.296a23.712 23.712 0 0 0 16.544 6.688c6.208 0 12.16-2.432 16.544-6.72l131.552-127.36a22.688 22.688 0 0 0 7.04-16.288 20.928 20.928 0 0 0-7.04-15.808l-123.136-119.264c75.264-14.944 152.96 11.328 202.24 68.416a197.376 197.376 0 0 1 33.824 204.896 22.08 22.08 0 0 0 5.12 23.968l211.808 205.12c13.216 12.64 20.672 29.888 20.672 47.872 0 17.984-7.456 35.232-20.672 47.904v-0.48z" p-id="4861" fill="#ffffff"></path></svg>